<mxfile host="Electron" agent="Mozilla/5.0 (Windows NT 10.0; Win64; x64) AppleWebKit/537.36 (KHTML, like Gecko) draw.io/26.1.1 Chrome/132.0.6834.210 Electron/34.3.3 Safari/537.36" version="26.1.1">
  <diagram name="페이지-1" id="rF6pVbsguHFKyYRbyVCU">
    <mxGraphModel dx="1816" dy="1751" grid="1" gridSize="10" guides="1" tooltips="1" connect="1" arrows="1" fold="1" page="1" pageScale="1" pageWidth="827" pageHeight="1169" math="0" shadow="0">
      <root>
        <mxCell id="0" />
        <mxCell id="1" parent="0" />
        <mxCell id="5Zk93DXa9fb_XMb_ltPY-1" value="Model" style="rounded=0;whiteSpace=wrap;html=1;" parent="1" vertex="1">
          <mxGeometry x="100" y="130" width="120" height="60" as="geometry" />
        </mxCell>
        <mxCell id="5Zk93DXa9fb_XMb_ltPY-2" value="이 프로그램 유저를 위한 데이터" style="text;html=1;align=center;verticalAlign=middle;whiteSpace=wrap;rounded=0;" parent="1" vertex="1">
          <mxGeometry x="75" y="190" width="170" height="30" as="geometry" />
        </mxCell>
        <mxCell id="5Zk93DXa9fb_XMb_ltPY-3" value="Inventory&lt;br&gt;PlayerAssets&lt;div&gt;EquippedItems&lt;/div&gt;" style="text;html=1;whiteSpace=wrap;overflow=hidden;rounded=0;fontColor=#FF0000;" parent="1" vertex="1">
          <mxGeometry x="110" y="220" width="100" height="60" as="geometry" />
        </mxCell>
        <mxCell id="5Zk93DXa9fb_XMb_ltPY-4" value="View" style="rounded=0;whiteSpace=wrap;html=1;" parent="1" vertex="1">
          <mxGeometry x="300" y="50" width="120" height="60" as="geometry" />
        </mxCell>
        <mxCell id="5Zk93DXa9fb_XMb_ltPY-6" style="edgeStyle=orthogonalEdgeStyle;rounded=0;orthogonalLoop=1;jettySize=auto;html=1;entryX=1;entryY=0.5;entryDx=0;entryDy=0;" parent="1" source="5Zk93DXa9fb_XMb_ltPY-5" target="5Zk93DXa9fb_XMb_ltPY-1" edge="1">
          <mxGeometry relative="1" as="geometry" />
        </mxCell>
        <mxCell id="5Zk93DXa9fb_XMb_ltPY-5" value="Controller" style="rounded=0;whiteSpace=wrap;html=1;" parent="1" vertex="1">
          <mxGeometry x="300" y="220" width="120" height="60" as="geometry" />
        </mxCell>
        <mxCell id="5Zk93DXa9fb_XMb_ltPY-7" value="UI의 입력에 따라 &lt;br&gt;유저가 조작하려는 데이터를 갱신" style="text;html=1;align=center;verticalAlign=middle;whiteSpace=wrap;rounded=0;" parent="1" vertex="1">
          <mxGeometry x="275" y="290" width="170" height="30" as="geometry" />
        </mxCell>
        <mxCell id="5Zk93DXa9fb_XMb_ltPY-8" value="InventoryController&lt;div&gt;ItemController&lt;/div&gt;" style="text;html=1;whiteSpace=wrap;overflow=hidden;rounded=0;fontColor=#FF0000;" parent="1" vertex="1">
          <mxGeometry x="307.5" y="320" width="105" height="60" as="geometry" />
        </mxCell>
        <mxCell id="5Zk93DXa9fb_XMb_ltPY-9" value="유저에게 보여줄 데이터의 최신값으로&lt;br&gt;UI의 시각적 요소를 갱신" style="text;html=1;align=center;verticalAlign=middle;whiteSpace=wrap;rounded=0;" parent="1" vertex="1">
          <mxGeometry x="262.5" y="120" width="195" height="30" as="geometry" />
        </mxCell>
        <mxCell id="5Zk93DXa9fb_XMb_ltPY-10" value="ItemView&lt;br&gt;InventoryView&lt;br&gt;ItemShopView" style="text;html=1;whiteSpace=wrap;overflow=hidden;rounded=0;fontColor=#FF0000;" parent="1" vertex="1">
          <mxGeometry x="317.5" y="-10" width="85" height="50" as="geometry" />
        </mxCell>
        <mxCell id="yY0bJ5FuwwHbKXLzC95C-3" style="edgeStyle=orthogonalEdgeStyle;rounded=0;orthogonalLoop=1;jettySize=auto;html=1;startArrow=diamondThin;startFill=0;" edge="1" parent="1" source="yY0bJ5FuwwHbKXLzC95C-1" target="yY0bJ5FuwwHbKXLzC95C-2">
          <mxGeometry relative="1" as="geometry" />
        </mxCell>
        <mxCell id="yY0bJ5FuwwHbKXLzC95C-1" value="Currency Controller" style="text;html=1;align=center;verticalAlign=middle;whiteSpace=wrap;rounded=0;" vertex="1" parent="1">
          <mxGeometry x="40" y="810" width="140" height="30" as="geometry" />
        </mxCell>
        <mxCell id="yY0bJ5FuwwHbKXLzC95C-6" style="edgeStyle=orthogonalEdgeStyle;rounded=0;orthogonalLoop=1;jettySize=auto;html=1;entryX=0;entryY=0.5;entryDx=0;entryDy=0;" edge="1" parent="1" source="yY0bJ5FuwwHbKXLzC95C-2" target="yY0bJ5FuwwHbKXLzC95C-5">
          <mxGeometry relative="1" as="geometry">
            <mxPoint x="20" y="790" as="targetPoint" />
            <Array as="points">
              <mxPoint x="20" y="890" />
              <mxPoint x="20" y="785" />
            </Array>
          </mxGeometry>
        </mxCell>
        <mxCell id="yY0bJ5FuwwHbKXLzC95C-2" value="Currency Context" style="text;html=1;align=center;verticalAlign=middle;whiteSpace=wrap;rounded=0;" vertex="1" parent="1">
          <mxGeometry x="40" y="880" width="140" height="30" as="geometry" />
        </mxCell>
        <mxCell id="yY0bJ5FuwwHbKXLzC95C-4" value="Currency Context 만듦" style="text;html=1;align=center;verticalAlign=middle;whiteSpace=wrap;rounded=0;" vertex="1" parent="1">
          <mxGeometry x="100" y="845" width="150" height="30" as="geometry" />
        </mxCell>
        <mxCell id="yY0bJ5FuwwHbKXLzC95C-5" value="Currency View" style="text;html=1;align=center;verticalAlign=middle;whiteSpace=wrap;rounded=0;" vertex="1" parent="1">
          <mxGeometry x="50" y="770" width="120" height="30" as="geometry" />
        </mxCell>
        <mxCell id="yY0bJ5FuwwHbKXLzC95C-7" value="알림" style="text;html=1;align=center;verticalAlign=middle;whiteSpace=wrap;rounded=0;" vertex="1" parent="1">
          <mxGeometry x="-30" y="820" width="60" height="30" as="geometry" />
        </mxCell>
        <mxCell id="yY0bJ5FuwwHbKXLzC95C-8" value="json" style="text;html=1;align=center;verticalAlign=middle;whiteSpace=wrap;rounded=0;" vertex="1" parent="1">
          <mxGeometry x="190" y="900" width="60" height="30" as="geometry" />
        </mxCell>
        <mxCell id="yY0bJ5FuwwHbKXLzC95C-9" value="" style="endArrow=classic;startArrow=classic;html=1;rounded=0;entryX=0;entryY=0.5;entryDx=0;entryDy=0;" edge="1" parent="1" target="yY0bJ5FuwwHbKXLzC95C-8">
          <mxGeometry width="50" height="50" relative="1" as="geometry">
            <mxPoint x="150" y="910" as="sourcePoint" />
            <mxPoint x="200" y="860" as="targetPoint" />
          </mxGeometry>
        </mxCell>
        <mxCell id="yY0bJ5FuwwHbKXLzC95C-12" style="edgeStyle=orthogonalEdgeStyle;rounded=0;orthogonalLoop=1;jettySize=auto;html=1;startArrow=diamondThin;startFill=0;" edge="1" parent="1" source="yY0bJ5FuwwHbKXLzC95C-13" target="yY0bJ5FuwwHbKXLzC95C-14">
          <mxGeometry relative="1" as="geometry" />
        </mxCell>
        <mxCell id="yY0bJ5FuwwHbKXLzC95C-13" value="Gold Controller" style="text;html=1;align=center;verticalAlign=middle;whiteSpace=wrap;rounded=0;" vertex="1" parent="1">
          <mxGeometry x="260" y="805" width="140" height="30" as="geometry" />
        </mxCell>
        <mxCell id="yY0bJ5FuwwHbKXLzC95C-14" value="Gold Currency" style="text;html=1;align=center;verticalAlign=middle;whiteSpace=wrap;rounded=0;" vertex="1" parent="1">
          <mxGeometry x="260" y="875" width="140" height="30" as="geometry" />
        </mxCell>
        <mxCell id="yY0bJ5FuwwHbKXLzC95C-15" value="" style="endArrow=classic;startArrow=classic;html=1;rounded=0;entryX=1;entryY=0.5;entryDx=0;entryDy=0;exitX=0.25;exitY=1;exitDx=0;exitDy=0;" edge="1" parent="1" source="yY0bJ5FuwwHbKXLzC95C-14" target="yY0bJ5FuwwHbKXLzC95C-8">
          <mxGeometry width="50" height="50" relative="1" as="geometry">
            <mxPoint x="160" y="920" as="sourcePoint" />
            <mxPoint x="200" y="925" as="targetPoint" />
          </mxGeometry>
        </mxCell>
        <mxCell id="yY0bJ5FuwwHbKXLzC95C-16" value="같은 json 파일 읽고 씀" style="text;html=1;align=center;verticalAlign=middle;whiteSpace=wrap;rounded=0;" vertex="1" parent="1">
          <mxGeometry x="150" y="920" width="150" height="30" as="geometry" />
        </mxCell>
      </root>
    </mxGraphModel>
  </diagram>
</mxfile>
